<svg width="25" height="25" viewBox="0 0 25 25" fill="none" xmlns="http://www.w3.org/2000/svg">
<g clip-path="url(#clip0_2032_16)">
<path fill-rule="evenodd" clip-rule="evenodd" d="M9.36618 13.4766H12.3683C11.8515 11.7188 11.3426 10.0937 10.8418 8.44219C10.3558 10.0996 9.86286 11.7188 9.36618 13.4766ZM24.2406 0.195312H0.561106C0.134153 0.195312 0.195285 0.288281 0.195285 0.700195V24.41C0.195285 24.8215 0.134153 24.8047 0.531028 24.8047H24.2707C24.6674 24.8047 24.8047 24.8215 24.8047 24.4098V0.730273C24.8047 0.288281 24.6676 0.195312 24.2406 0.195312ZM15.0972 18.75C14.7775 18.75 14.4566 18.724 14.1385 18.7469C13.909 18.7641 13.8322 18.6676 13.7711 18.4684C13.4754 17.5053 13.1611 16.5426 12.8652 15.5797C12.8056 15.3859 12.7205 15.3152 12.5105 15.3178C11.4318 15.3303 10.3525 15.3291 9.27361 15.3164C9.04646 15.3137 8.94197 15.3742 8.87712 15.5996C8.60251 16.5574 8.30212 17.5074 8.02458 18.4643C7.96443 18.6717 7.87302 18.7441 7.65271 18.7385C7.00466 18.7223 6.35564 18.7322 5.64607 18.7322C5.83337 18.1375 6.00329 17.5875 6.17907 17.0398C7.25603 13.6805 8.33669 10.3211 9.40583 6.95957C9.48044 6.72559 9.58415 6.65352 9.82439 6.65879C10.5834 6.67559 11.3429 6.66309 12.1023 6.65879C12.2443 6.65781 12.3412 6.66621 12.3931 6.82754C13.6636 10.7564 14.9386 14.7096 16.2125 18.6381C16.2179 18.6559 16.2144 18.75 16.2174 18.75H15.0972ZM19.1406 18.75H16.7968V9.96094H19.1406V18.75ZM17.9004 8.7752C17.1845 8.77422 16.672 8.28145 16.6672 7.58965C16.6625 6.8998 17.1959 6.38672 17.9183 6.38594C18.6465 6.38516 19.1595 6.88145 19.1652 7.59121C19.1703 8.28359 18.6443 8.77637 17.9004 8.7752Z" fill="#272727"/>
</g>
<defs>
<clipPath id="clip0_2032_16">
<rect width="25" height="25" fill="white"/>
</clipPath>
</defs>
</svg>
